<svg xmlns="http://www.w3.org/2000/svg" x="0px" y="0px"
width="16" height="16"
viewBox="0 0 172 172"
style=" fill:#000000;"><g fill="#363f5f" fill-rule="nonzero" stroke="none" stroke-width="1" stroke-linecap="butt" stroke-linejoin="miter" stroke-miterlimit="10" stroke-dasharray="" stroke-dashoffset="0" font-family="none" font-weight="none" font-size="none" text-anchor="none" style="mix-blend-mode: normal"><g transform="scale(2.15,2.15)"><path d="M34,3c-1.09375,0 -2,0.90625 -2,2v3c0,1.09375 0.90625,2 2,2h2v2.26953c-5.13281,0.66406 -10.13281,2.61328 -14.47266,5.83984l-1.30078,-1.29687l0.16797,-0.17187c0.78906,-0.78516 0.78906,-2.08984 0,-2.87891l-1.16406,-1.16406c-0.39453,-0.39453 -0.91797,-0.59375 -1.44141,-0.59375c-0.52344,0 -1.04687,0.19922 -1.44141,0.59375l-4.75781,4.76172c-0.78906,0.78516 -0.78906,2.08984 0,2.87891l1.16406,1.16797c0.78906,0.78516 2.09375,0.78516 2.88281,-0.00391l0.17578,-0.17578l1.09375,1.09766c-10.91016,12.16406 -10.51953,30.90234 1.17188,42.59766c12.10156,12.09766 31.74219,12.09766 43.84375,0c11.69141,-11.69531 12.08203,-30.43359 1.17188,-42.59766l1.40625,-1.41016c0.75391,0.39453 1.71484,0.28516 2.34375,-0.34375l1.12109,-1.11719v-0.00391c0.77344,-0.77344 0.77344,-2.05469 0,-2.82812l-3.58594,-3.58594c-0.38672,-0.38672 -0.89844,-0.57812 -1.41406,-0.57812c-0.51562,0 -1.02734,0.19141 -1.41406,0.57813l-1.12109,1.12109c-0.62891,0.62891 -0.73828,1.58984 -0.34375,2.34375l-1.61328,1.60938c-4.33984,-3.22656 -9.33984,-5.17578 -14.47266,-5.83984v-2.26953h2c1.09375,0 2,-0.90625 2,-2v-3c0,-1.09375 -0.90625,-2 -2,-2zM34,5h12v3h-12zM38,10h4v2h-4zM39.75391,14h0.49219c7.33594,0.0625 14.65625,2.89063 20.25781,8.49609c11.33594,11.33203 11.33594,29.67578 0,41.00781c-11.33203,11.33594 -29.67578,11.33594 -41.00781,0c-11.33594,-11.33203 -11.33594,-29.67578 0,-41.00781c5.60156,-5.60547 12.92188,-8.43359 20.25781,-8.49609zM17.76563,14.01172c0.01953,-0.02344 0.02734,-0.02344 0.05078,0l1.16406,1.16406c0.02344,0.02344 0.02344,0.03125 0,0.05469l-4.76172,4.75781c-0.01953,0.02344 -0.02734,0.02344 -0.05078,0l-1.16406,-1.16406c-0.02344,-0.02344 -0.02344,-0.03125 0,-0.05469zM62.96484,14.44922l3.58594,3.58594l-1.12109,1.12109l-3.58594,-3.58594zM40,17c-0.55078,0 -1,0.44922 -1,1c0,0.55078 0.44922,1 1,1c0.55078,0 1,-0.44922 1,-1c0,-0.55078 -0.44922,-1 -1,-1zM33.53906,17.85156c-0.02344,0 -0.04687,0 -0.07031,0.00391c-0.06641,0.00391 -0.13281,0.01172 -0.19922,0.03125c-0.53125,0.14453 -0.84766,0.69141 -0.70703,1.22266c0.14453,0.53516 0.69141,0.85156 1.22656,0.70703c0.53516,-0.14062 0.85156,-0.6875 0.70703,-1.22266c-0.11719,-0.43359 -0.50781,-0.73828 -0.95703,-0.74219zM46.46094,17.85547c-0.44922,0.00391 -0.83984,0.30469 -0.95703,0.73828c-0.14453,0.53516 0.17188,1.08203 0.70703,1.22656c0.53516,0.14453 1.08203,-0.17187 1.22656,-0.70703c0.14063,-0.53516 -0.17578,-1.08203 -0.70703,-1.22266c-0.08984,-0.02734 -0.17969,-0.03906 -0.26953,-0.03516zM61.42969,17.98438l1.58594,1.58594l-1.30859,1.30469c-0.53906,-0.52734 -1.08984,-1.03125 -1.65625,-1.51562zM18.8125,18.22656l1.13672,1.13281c-0.56641,0.48438 -1.11719,0.98828 -1.65625,1.51563l-1.06641,-1.0625zM27.47656,20.34766c-0.16797,0.00391 -0.33203,0.05078 -0.47656,0.13672c-0.23047,0.12891 -0.39844,0.34766 -0.46875,0.60547c-0.06641,0.25781 -0.03125,0.53125 0.10156,0.75781c0.13281,0.23047 0.35156,0.39844 0.60938,0.46875c0.25391,0.06641 0.52734,0.03125 0.75781,-0.10156c0.47656,-0.27734 0.64063,-0.88672 0.36328,-1.36719c-0.17969,-0.31641 -0.51953,-0.50781 -0.88672,-0.5zM52.45313,20.35156c-0.33984,0.01563 -0.64844,0.20313 -0.82031,0.49609c-0.27734,0.48047 -0.10937,1.08984 0.36719,1.36719c0.47656,0.27734 1.08984,0.11328 1.36328,-0.36719c0.27734,-0.47656 0.11328,-1.08594 -0.36328,-1.36328c-0.16797,-0.09766 -0.35547,-0.14062 -0.54687,-0.13281zM40.64844,22.98438l-2,0.03516l0.28516,16.14844c-0.64844,0.17578 -1.25781,0.5 -1.76172,1.00391c-1.55469,1.55469 -1.55469,4.10156 0,5.65625c0.51953,0.51953 1.15625,0.85156 1.82813,1.02344v2.85156h2v-2.85156c0.67188,-0.17187 1.30859,-0.50391 1.82813,-1.02344c1.55469,-1.55469 1.55469,-4.10156 0,-5.65625c-0.53906,-0.53906 -1.19922,-0.87891 -1.89453,-1.04687zM22.33594,24.32422c-0.26953,-0.00781 -0.53125,0.09766 -0.72266,0.28906c-0.39062,0.39063 -0.39062,1.02734 0,1.41797c0.1875,0.1875 0.44141,0.29297 0.70703,0.29297c0.26563,0 0.51953,-0.10547 0.71094,-0.29297c0.38672,-0.39062 0.38672,-1.02734 0,-1.41797c-0.1875,-0.18359 -0.43359,-0.28906 -0.69531,-0.28906zM57.69141,24.32422c-0.26953,-0.00391 -0.53125,0.10156 -0.72266,0.28906c-0.38672,0.39063 -0.38672,1.02734 0,1.41797c0.39063,0.38672 1.02734,0.38672 1.41797,0c0.38672,-0.39062 0.38672,-1.02734 0,-1.41797c-0.1875,-0.18359 -0.43359,-0.28906 -0.69531,-0.28906zM61.625,29.5c-0.16797,0.00391 -0.33203,0.05078 -0.47656,0.13281c-0.47656,0.27734 -0.64062,0.88672 -0.36719,1.36719c0.27734,0.47656 0.89063,0.64063 1.36719,0.36328c0.23047,-0.12891 0.39844,-0.34766 0.46875,-0.60547c0.06641,-0.25781 0.03125,-0.53125 -0.10156,-0.75781c-0.18359,-0.31641 -0.52344,-0.50781 -0.89062,-0.5zM18.30078,29.5c-0.33594,0.01953 -0.64453,0.20703 -0.81641,0.5c-0.13281,0.23047 -0.16797,0.50391 -0.10156,0.75781c0.07031,0.25781 0.23828,0.47656 0.46484,0.60938c0.48047,0.27734 1.08984,0.10938 1.36719,-0.36719c0.27734,-0.47656 0.11328,-1.08984 -0.36719,-1.36328c-0.16406,-0.09766 -0.35547,-0.14453 -0.54687,-0.13672zM15.84375,35.53125c-0.44922,0.00391 -0.83984,0.30469 -0.95703,0.73828c-0.14453,0.53516 0.17188,1.08203 0.70703,1.22656c0.53516,0.14453 1.08203,-0.17187 1.22266,-0.70703c0.14453,-0.53516 -0.17187,-1.08203 -0.70703,-1.22656c-0.08594,-0.02344 -0.17578,-0.03516 -0.26562,-0.03125zM64.1875,35.53125c-0.10156,-0.00391 -0.20312,0.00781 -0.29687,0.03516c-0.53516,0.14453 -0.85156,0.69141 -0.70703,1.22656c0.14063,0.53125 0.6875,0.84766 1.22266,0.70703c0.53516,-0.14453 0.85156,-0.69141 0.70703,-1.22656c-0.11328,-0.42578 -0.48828,-0.72656 -0.92578,-0.74219zM40,40.99609c0.50781,-0.00391 1.01953,0.19531 1.41406,0.58984c0.78906,0.78906 0.78906,2.03906 0,2.82813c-0.78906,0.78906 -2.03906,0.78906 -2.82812,0c-0.78906,-0.78906 -0.78906,-2.03906 0,-2.82812c0.39453,-0.39453 0.90625,-0.58984 1.41406,-0.58984zM15,42c-0.55078,0 -1,0.44922 -1,1c0,0.55078 0.44922,1 1,1c0.55078,0 1,-0.44922 1,-1c0,-0.55078 -0.44922,-1 -1,-1zM65,42c-0.55078,0 -1,0.44922 -1,1c0,0.55078 0.44922,1 1,1c0.55078,0 1,-0.44922 1,-1c0,-0.55078 -0.44922,-1 -1,-1zM15.89063,48.46875c-0.10156,0 -0.20312,0.00781 -0.29687,0.03516c-0.53516,0.14453 -0.85156,0.69141 -0.70703,1.22656c0.14063,0.53125 0.6875,0.84766 1.22266,0.70703c0.53516,-0.14453 0.85156,-0.69141 0.70703,-1.22656c-0.11328,-0.42187 -0.48828,-0.72266 -0.92578,-0.74219zM64.14063,48.47266c-0.45312,0.00391 -0.84375,0.30859 -0.95703,0.74219c-0.14453,0.53516 0.17188,1.08203 0.70703,1.22266c0.53125,0.14453 1.07813,-0.17187 1.22266,-0.70312c0.14453,-0.53516 -0.17187,-1.08203 -0.70703,-1.22656c-0.08594,-0.02344 -0.17578,-0.03516 -0.26562,-0.03516zM18.32422,54.5c-0.16797,0.00391 -0.32812,0.05078 -0.47656,0.13281c-0.47656,0.27734 -0.64062,0.88672 -0.36328,1.36719c0.12891,0.22656 0.34766,0.39453 0.60547,0.46484c0.25781,0.07031 0.53125,0.03516 0.75781,-0.10156c0.23047,-0.12891 0.39844,-0.34766 0.46875,-0.60547c0.06641,-0.25781 0.03125,-0.53125 -0.10156,-0.75781c-0.18359,-0.31641 -0.52344,-0.50781 -0.89062,-0.5zM61.60156,54.5c-0.33984,0.01953 -0.64844,0.20703 -0.82031,0.5c-0.27344,0.48047 -0.10937,1.08984 0.36719,1.36719c0.23047,0.13281 0.50391,0.16797 0.75781,0.10156c0.25781,-0.07031 0.47656,-0.23828 0.60938,-0.46875c0.13281,-0.22656 0.16797,-0.5 0.10156,-0.75781c-0.07031,-0.25781 -0.23828,-0.47656 -0.46875,-0.60547c-0.16406,-0.09766 -0.35547,-0.14453 -0.54687,-0.13672zM22.33594,59.67578c-0.26953,0 -0.53125,0.10547 -0.72266,0.29297c-0.38672,0.39063 -0.38672,1.02734 0,1.41797c0.39063,0.38672 1.02734,0.38672 1.41797,0c0.38672,-0.39062 0.38672,-1.02734 0,-1.41797c-0.1875,-0.18359 -0.43359,-0.28906 -0.69531,-0.29297zM57.69141,59.67578c-0.26953,0 -0.53125,0.10547 -0.72266,0.29297c-0.38672,0.39063 -0.38672,1.02734 0,1.41797c0.39063,0.38672 1.02734,0.38672 1.41797,0c0.38672,-0.39062 0.38672,-1.02734 0,-1.41797c-0.1875,-0.18359 -0.43359,-0.28906 -0.69531,-0.29297zM52.47266,63.64844c-0.16406,0.00391 -0.32812,0.05078 -0.47266,0.13281c-0.48047,0.27734 -0.64453,0.89063 -0.36719,1.36719c0.27734,0.47656 0.88672,0.64453 1.36719,0.36719c0.22656,-0.13281 0.39453,-0.35156 0.46484,-0.60937c0.07031,-0.25391 0.03516,-0.52734 -0.10156,-0.75781c-0.17969,-0.31641 -0.52344,-0.50781 -0.89062,-0.5zM27.45313,63.65234c-0.34375,0.01563 -0.65234,0.20313 -0.82031,0.5c-0.27734,0.47656 -0.10937,1.08984 0.36719,1.36328c0.47656,0.27734 1.08984,0.11328 1.36328,-0.36328c0.13672,-0.23047 0.17188,-0.50391 0.10156,-0.75781c-0.06641,-0.25781 -0.23437,-0.47656 -0.46484,-0.60937c-0.16797,-0.09766 -0.35547,-0.14062 -0.54687,-0.13281zM46.48047,66.14844c-0.02734,0 -0.05078,0 -0.07422,0.00391c-0.06641,0.00391 -0.13281,0.01563 -0.19531,0.03125c-0.25781,0.06641 -0.47656,0.23438 -0.60937,0.46484c-0.13281,0.23047 -0.16797,0.50391 -0.10156,0.75781c0.07031,0.25781 0.23828,0.47656 0.46875,0.60938c0.23047,0.13281 0.50391,0.16797 0.76172,0.09766c0.53125,-0.14062 0.84766,-0.6875 0.70703,-1.22266c-0.11719,-0.43359 -0.50781,-0.73828 -0.95703,-0.74219zM33.51953,66.15234c-0.44922,0 -0.83984,0.30469 -0.95703,0.73828c-0.14453,0.53516 0.17188,1.08203 0.70703,1.22266c0.53516,0.14453 1.08203,-0.17187 1.22656,-0.70703c0.14063,-0.53125 -0.17578,-1.07812 -0.71094,-1.22266c-0.08594,-0.02344 -0.17578,-0.03516 -0.26562,-0.03125zM40,67c-0.55078,0 -1,0.44922 -1,1c0,0.55078 0.44922,1 1,1c0.55078,0 1,-0.44922 1,-1c0,-0.55078 -0.44922,-1 -1,-1z"></path></g></g></svg>