<svg xmlns="http://www.w3.org/2000/svg" x="0px" y="0px"
width="48" height="48"
viewBox="0 0 172 172"
style=" fill:#363f5f;"><defs><radialGradient cx="36.99846" cy="33.99888" r="2.99988" gradientUnits="userSpaceOnUse" id="color-1_iyJmTkz8G0Fu_gr1"><stop offset="0" stop-color="#363f5f"></stop><stop offset="1" stop-color="#363f5f" stop-opacity="0"></stop></radialGradient></defs><g fill="none" fill-rule="nonzero" stroke="none" stroke-width="1" stroke-linecap="butt" stroke-linejoin="miter" stroke-miterlimit="10" stroke-dasharray="" stroke-dashoffset="0" font-family="none" font-weight="none" font-size="none" text-anchor="none" style="mix-blend-mode: normal"><g transform="scale(3.58333,3.58333)"><rect x="10" y="31" width="28" height="12" fill="#363f5f"></rect><path d="M14,9h20v-2c0,-1.104 -0.896,-2 -2,-2h-16c-1.104,0 -2,0.896 -2,2z" fill="#363f5f"></path><path d="M10,11v20h28v-20z" fill="#363f5f"></path><rect x="30" y="35" width="4" height="4" fill="#363f5f"></rect><rect x="21" y="35" width="7" height="8" fill="#ecf0f1"></rect><rect x="30" y="23" width="4" height="4" fill="#95a5a6"></rect><rect x="22" y="23" width="4" height="4" fill="#95a5a6"></rect><rect x="14" y="15" width="4" height="4" fill="#95a5a6"></rect><rect x="14" y="23" width="4" height="4" fill="#95a5a6"></rect><rect x="14" y="35" width="4" height="4" fill="#363f5f"></rect><rect x="22" y="15" width="4" height="4" fill="#95a5a6"></rect><rect x="30" y="15" width="4" height="4" fill="#95a5a6"></rect><path d="M38,11h-28c-0.553,0 -1,-0.448 -1,-1c0,-0.552 0.447,-1 1,-1h28c0.553,0 1,0.448 1,1c0,0.552 -0.447,1 -1,1z" fill="#95a5a6"></path><path d="M44,44v-14c0,-1.105 -0.895,-2 -2,-2h-10c-1.105,0 -2,0.895 -2,2v14c0,1.105 0.895,2 2,2h10c1.105,0 2,-0.895 2,-2z" fill="#95a5a6"></path><path d="M37,36c-2.206,0 -4,1.794 -4,4v1c0,1.103 0.897,2 2,2h4c1.103,0 2,-0.897 2,-2v-1c0,-2.206 -1.794,-4 -4,-4z" fill="#95a5a6" opacity="0.05"></path><path d="M37,36.5c-1.93,0 -3.5,1.57 -3.5,3.5v1c0,0.827 0.673,1.5 1.5,1.5h4c0.827,0 1.5,-0.673 1.5,-1.5v-1c0,-1.93 -1.57,-3.5 -3.5,-3.5z" fill="#363f5f" opacity="0.07"></path><circle cx="37" cy="34" r="3" fill="url(#color-1_iyJmTkz8G0Fu_gr1)"></circle><path d="M37,37c-1.657,0 -3,1.343 -3,3v1c0,0.552 0.448,1 1,1h4c0.552,0 1,-0.448 1,-1v-1c0,-1.657 -1.343,-3 -3,-3z" fill="#363f5f"></path><circle cx="37" cy="34" r="2" fill="#363f5f"></circle></g></g></svg>