<svg xmlns="http://www.w3.org/2000/svg" x="0px" y="0px"
width="64" height="64"
viewBox="0 0 172 172"
style=" fill:#39a6ef;"><g fill="none" fill-rule="nonzero" stroke="none" stroke-width="1" stroke-linecap="butt" stroke-linejoin="miter" stroke-miterlimit="10" stroke-dasharray="" stroke-dashoffset="0" font-family="none" font-weight="none" font-size="none" text-anchor="none" style="mix-blend-mode: normal"><g transform="scale(1.34375,1.34375)" id="Layer_1"><path d="M17,69h15v43h-15" fill="#39a6ef"></path><path d="M32,115h-15c-1.7,0 -3,-1.3 -3,-3c0,-1.7 1.3,-3 3,-3h12v-37h-12c-1.7,0 -3,-1.3 -3,-3c0,-1.7 1.3,-3 3,-3h15c1.7,0 3,1.3 3,3v43c0,1.7 -1.3,3 -3,3z" fill="#39a6ef"></path><path d="M44,66c11.2,-7.6 18.7,-19.6 20.5,-33.1l0.6,-4c0.6,-4.4 4.6,-7.4 9,-6.8c4.4,0.6 7.4,4.6 6.8,9l-0.6,4c-0.5,3.9 -1.4,7.7 -2.7,11.4l-3.4,9.6l18.9,-0.1c6.2,0 10.9,5.6 9.8,11.8l-6.4,36c-0.9,4.8 -5,8.2 -9.8,8.2h-29.9c-4.4,0 -8.7,-0.8 -12.8,-2.3h-3v-43.7z" fill="#39a6ef"></path><path d="M86.6,115h-29.8c-4.8,0 -9.4,-0.8 -13.9,-2.5c-1.6,-0.6 -2.3,-2.3 -1.8,-3.9c0.6,-1.6 2.3,-2.3 3.9,-1.8c3.8,1.4 7.7,2.1 11.8,2.1h29.8c3.4,0 6.3,-2.4 6.9,-5.8l6.4,-36c0.4,-2 -0.2,-4.1 -1.5,-5.7c-1.3,-1.6 -3.3,-2.5 -5.4,-2.5l-18.8,0.1c-1,0 -1.9,-0.5 -2.5,-1.3c-0.6,-0.8 -0.7,-1.8 -0.4,-2.7l3.4,-9.6c1.2,-3.5 2,-7.1 2.5,-10.8l0.6,-4c0.4,-2.7 -1.5,-5.3 -4.3,-5.6c-1.3,-0.2 -2.6,0.2 -3.7,1c-1.1,0.8 -1.8,2 -1.9,3.3l-0.6,4c-2,14.2 -9.9,27 -21.8,35.2c-1.4,0.9 -3.2,0.6 -4.2,-0.8c-0.9,-1.4 -0.6,-3.2 0.8,-4.2c10.5,-7.2 17.5,-18.5 19.2,-31l0.6,-4c0.4,-2.9 1.9,-5.5 4.3,-7.3c2.3,-1.8 5.2,-2.5 8.1,-2.1c2.9,0.4 5.5,1.9 7.3,4.3c1.8,2.4 2.5,5.2 2.1,8.1l-0.6,4c-0.6,4.1 -1.5,8.1 -2.8,12l-2,5.6l14.7,-0.1c3.9,0 7.5,1.7 10,4.7c2.5,3 3.5,6.8 2.8,10.6l-6.4,36c-1.1,6.2 -6.5,10.7 -12.8,10.7z" fill="#39a6ef"></path></g></g></svg>