<svg xmlns="http://www.w3.org/2000/svg" x="0px" y="0px"
width="50" height="50"
viewBox="0 0 172 172"
style=" fill:#000000;"><g fill="#95a5a6" fill-rule="nonzero" stroke="none" stroke-width="1" stroke-linecap="butt" stroke-linejoin="miter" stroke-miterlimit="10" stroke-dasharray="" stroke-dashoffset="0" font-family="none" font-weight="none" font-size="none" text-anchor="none" style="mix-blend-mode: normal"><g transform="scale(3.44,3.44)"><path d="M5,4c-1.64497,0 -3,1.35503 -3,3v9v10v17c0,1.64497 1.35503,3 3,3h40c1.64497,0 3,-1.35503 3,-3v-32c0,-1.64497 -1.35503,-3 -3,-3h-27c0.08657,0 -0.03101,0.00036 -0.27539,-0.28125c-0.24438,-0.28161 -0.54519,-0.74881 -0.85937,-1.25c-0.31418,-0.50119 -0.64346,-1.03596 -1.05859,-1.50586c-0.41514,-0.4699 -0.98789,-0.96289 -1.80664,-0.96289zM5,6h9c-0.06075,0 0.06114,0.00701 0.30859,0.28711c0.24746,0.2801 0.54864,0.74533 0.86133,1.24414c0.31269,0.49881 0.63651,1.03161 1.04297,1.5c0.40646,0.46839 0.96604,0.96875 1.78711,0.96875h27c0.56503,0 1,0.43497 1,1v2.1875c-0.31489,-0.11356 -0.64816,-0.1875 -1,-0.1875h-40c-0.35184,0 -0.68511,0.07394 -1,0.1875v-6.1875c0,-0.56503 0.43497,-1 1,-1zM5,15h40c0.56503,0 1,0.43497 1,1v27c0,0.56503 -0.43497,1 -1,1h-40c-0.56503,0 -1,-0.43497 -1,-1v-27c0,-0.56503 0.43497,-1 1,-1zM37,20c-1.65685,0 -3,1.34315 -3,3c0,1.65685 1.34315,3 3,3c1.65685,0 3,-1.34315 3,-3c0,-1.65685 -1.34315,-3 -3,-3zM20.0293,24c-0.29017,-0.00816 -0.56956,0.11016 -0.76562,0.32422l-11,12c-0.25721,0.26044 -0.3516,0.64058 -0.24607,0.99108c0.10553,0.3505 0.3941,0.61535 0.75235,0.69048c0.35824,0.07514 0.72892,-0.05144 0.96638,-0.33l10.26367,-11.19727l7.22656,7.88086l-2.93359,2.93359c-0.26124,0.25082 -0.36648,0.62327 -0.27512,0.97371c0.09136,0.35044 0.36503,0.62411 0.71547,0.71547c0.35044,0.09136 0.72289,-0.01388 0.97371,-0.27512l3.59961,-3.59961l3.69336,-3.69336l7.29297,7.29297c0.25082,0.26124 0.62327,0.36648 0.97371,0.27512c0.35044,-0.09136 0.62411,-0.36503 0.71547,-0.71547c0.09136,-0.35044 -0.01388,-0.72289 -0.27512,-0.97371l-8,-8c-0.19132,-0.19141 -0.45205,-0.29711 -0.72266,-0.29297c-0.25977,0.00414 -0.50774,0.10921 -0.69141,0.29297l-3.65234,3.65234l-7.9043,-8.62109c-0.18227,-0.19905 -0.43726,-0.31598 -0.70703,-0.32422z"></path></g></g></svg>