<svg xmlns="http://www.w3.org/2000/svg" x="0px" y="0px"
width="64" height="64"
viewBox="0 0 172 172"
style=" fill:#000000;"><g fill="#95a5a6" fill-rule="nonzero" stroke="none" stroke-width="1" stroke-linecap="butt" stroke-linejoin="miter" stroke-miterlimit="10" stroke-dasharray="" stroke-dashoffset="0" font-family="none" font-weight="none" font-size="none" text-anchor="none" style="mix-blend-mode: normal"><g transform="scale(1.34375,1.34375)"><path d="M64,6c-32,0 -58,26 -58,58c0,32 26,58 58,58c32,0 58,-26 58,-58c0,-24.4 -15.40039,-46.39961 -38.40039,-54.59961c-6.3,-2.3 -12.89961,-3.40039 -19.59961,-3.40039zM64,12c6,0 11.89961,1 17.59961,3c0.3,0.1 0.60078,0.20078 0.80078,0.30078l0.19922,7.29883c0,2.7 -1.59961,5.20078 -4.09961,6.30078c-5.5,2.4 -11.00078,1.10039 -13.30078,7.40039c-1.9,4.8 3.10117,17.69922 9.20117,17.69922c7.7,0 11.39922,-15.5 13.69922,-15.5c1.5,0 3.8,4.69922 6.5,8.19922c1.8,2.4 4.59961,3.70117 7.59961,3.70117h5.10156l7.29883,1.69922c0.9,3.9 1.40039,7.90039 1.40039,11.90039c0,28.7 -23.3,52 -52,52c-4.1,0 -8.10039,-0.50039 -11.90039,-1.40039v-6.69922l-2.5,-2.5c-2.5,-2.5 2.6,-6.7 4,-12c3.9,-15 -9.1,-15.60039 -9.5,-18.90039c-0.4,-3.7 4.40078,-6.50039 7.30078,-9.40039c2.9,-2.9 3.79883,-7.4 2.29883,-10c-4.7,-8.7 -16.09922,-4.1 -17.19922,5c-0.6,5.5 -3.89922,11.1 -6.69922,14c-2.8,2.8 -8.30078,1.30117 -9.80078,-2.79883c-1.7,-4.6 4.20078,-6.30117 3.30078,-12.20117c-0.2,-1.6 -1.9,-2.39922 -4,-2.69922l-6.90039,0.19922c3.7,-25.2 25.39961,-44.59961 51.59961,-44.59961zM98.48242,69.94141c-2.62852,0.14297 -6.2957,1.44688 -11.2832,4.85938c-3.8,2.6 -10.49844,-2.80078 -13.39844,1.19922c-2.8,3.9 11.89883,15.8 16.79883,13.5c8.3,-3.9 13.70117,-12 13.70117,-15c0.0625,-1.8125 -1.4375,-4.79687 -5.81836,-4.55859z"></path></g></g></svg>