<svg xmlns="http://www.w3.org/2000/svg" x="0px" y="0px"
width="48" height="48"
viewBox="0 0 172 172"
style=" fill:#000000;"><g fill="none" fill-rule="nonzero" stroke="none" stroke-width="1" stroke-linecap="butt" stroke-linejoin="miter" stroke-miterlimit="10" stroke-dasharray="" stroke-dashoffset="0" font-family="none" font-weight="none" font-size="none" text-anchor="none" style="mix-blend-mode: normal"><g transform="scale(1.34375,1.34375)" id="Layer_1"><path d="M17,124c0,-26 21,-41 47,-41c26,0 47,15 47,41z" fill="#34495e"></path><path d="M94,4v26c0,16.6 -13.4,35 -30,35c-16.6,0 -30,-18.4 -30,-35v-26z" fill="#ffffff"></path><path d="M40.4,87.8l21.5,21.5c1.2,1.2 3.1,1.2 4.2,0l21.5,-21.5l-23.6,-6z" fill="#ffffff"></path><path d="M111,127h-94c-1.7,0 -3,-1.3 -3,-3c0,-25.9 20.6,-44 50,-44c29.4,0 50,18.1 50,44c0,1.7 -1.3,3 -3,3zM20.1,121h87.8c-1.4,-17.9 -15.1,-35 -43.9,-35c-28.8,0 -42.5,17.1 -43.9,35z" fill="#34495e"></path><path d="M119,1h-110c-1.7,0 -3,1.3 -3,3v30c0,1.7 1.3,3 3,3c1.7,0 3,-1.3 3,-3v-27h19v17c0,1.7 1.3,3 3,3h57v3c0,14.5 -12,32 -27,32c-11.2,0 -20.2,-9.6 -24.3,-19.2c-0.6,-1.5 -2.4,-2.2 -3.9,-1.6c-1.5,0.6 -2.2,2.4 -1.6,3.9c5.9,13.9 17.6,22.9 29.8,22.9c18.6,0 33,-20.4 33,-38v-23h22c1.7,0 3,-1.3 3,-3c0,-1.7 -1.3,-3 -3,-3z" fill="#363f5f"></path></g></g></svg>