<svg xmlns="http://www.w3.org/2000/svg" x="0px" y="0px"
width="50" height="50"
viewBox="0 0 172 172"
style=" fill:#000000;"><g fill="#95a5a6" fill-rule="nonzero" stroke="none" stroke-width="1" stroke-linecap="butt" stroke-linejoin="miter" stroke-miterlimit="10" stroke-dasharray="" stroke-dashoffset="0" font-family="none" font-weight="none" font-size="none" text-anchor="none" style="mix-blend-mode: normal"><g transform="scale(3.44,3.44)"><path d="M7,4c-2.74609,0 -5,2.25391 -5,5v24c0,2.74609 2.25391,5 5,5h4.08594c0.13672,1.19922 0.12109,2.31641 -0.18359,3.25c-0.38281,1.14453 -1.09375,2.09766 -2.41797,2.89063c-0.38281,0.23438 -0.56641,0.69141 -0.44531,1.125c0.11719,0.43359 0.51172,0.73438 0.96094,0.73438c4.24609,0 9.125,-2.20703 11.57813,-8h22.42188c2.74609,0 5,-2.25391 5,-5v-24c0,-2.74609 -2.25391,-5 -5,-5zM7,6h36c1.65625,0 3,1.34375 3,3v24c0,1.65625 -1.34375,3 -3,3h-23c-0.41797,0 -0.79687,0.26172 -0.9375,0.65625c-1.55859,4.25 -4.34375,6.25781 -7.23437,6.99609c0.39453,-0.56641 0.76172,-1.14062 0.96875,-1.77734c0.52344,-1.57422 0.50781,-3.29687 0.1875,-5.05469c-0.08594,-0.47656 -0.5,-0.82031 -0.98437,-0.82031h-5c-1.65625,0 -3,-1.34375 -3,-3v-24c0,-1.65625 1.34375,-3 3,-3zM25.70703,13.29297l-1.41406,1.41406l5.29297,5.29297h-13.58594v2h13.58594l-5.29297,5.29297l1.41406,1.41406l7.70703,-7.70703z"></path></g></g></svg>