<svg xmlns="http://www.w3.org/2000/svg" x="0px" y="0px"
width="30" height="30"
viewBox="0 0 172 172"
style=" fill:#000000;"><g fill="none" fill-rule="nonzero" stroke="none" stroke-width="1" stroke-linecap="butt" stroke-linejoin="miter" stroke-miterlimit="10" stroke-dasharray="" stroke-dashoffset="0" font-family="none" font-weight="none" font-size="none" text-anchor="none" style="mix-blend-mode: normal"><g transform="scale(5.73333,5.73333)"><path d="M22.5,18.71v-5.42l6,-3.428v12.276z" fill="#ffffff"></path><path d="M28,10.723v10.554l-5,-2.857v-4.84l5,-2.857M29,9l-7,4v6l7,4v-14z" fill="#95a5a6"></path><g><path d="M5,24.5c-1.93,0 -3.5,-1.57 -3.5,-3.5v-10c0,-1.93 1.57,-3.5 3.5,-3.5h14c1.93,0 3.5,1.57 3.5,3.5v10c0,1.93 -1.57,3.5 -3.5,3.5z" fill="#ffffff"></path><path d="M19,8c1.654,0 3,1.346 3,3v10c0,1.654 -1.346,3 -3,3h-14c-1.654,0 -3,-1.346 -3,-3v-10c0,-1.654 1.346,-3 3,-3h14M19,7h-14c-2.209,0 -4,1.791 -4,4v10c0,2.209 1.791,4 4,4h14c2.209,0 4,-1.791 4,-4v-10c0,-2.209 -1.791,-4 -4,-4z" fill="#95a5a6"></path></g></g></g></svg>