<svg xmlns="http://www.w3.org/2000/svg" x="0px" y="0px"
width="50" height="50"
viewBox="0 0 172 172"
style=" fill:#000000;"><g fill="#95a5a6" fill-rule="nonzero" stroke="none" stroke-width="1" stroke-linecap="butt" stroke-linejoin="miter" stroke-miterlimit="10" stroke-dasharray="" stroke-dashoffset="0" font-family="none" font-weight="none" font-size="none" text-anchor="none" style="mix-blend-mode: normal"><g transform="scale(3.44,3.44)"><path d="M7,4c-1.64497,0 -3,1.35503 -3,3v35c0,1.64497 1.35503,3 3,3h32.36914l3.73047,3.69922c1.6,1.6 4.10078,1.7 5.80078,0c1.6,-1.6 1.4,-4.19883 0,-5.79883l-2.90039,-2.86133v-33.03906c0,-1.64497 -1.35503,-3 -3,-3zM7,6h36c0.56503,0 1,0.43497 1,1v31.06445l-9.29883,-9.17578c-0.124,-0.122 -0.27536,-0.20891 -0.44336,-0.25391l-6,-1.60156c-0.35,-0.092 -0.7187,0.00862 -0.9707,0.26563c-0.252,0.256 -0.348,0.62861 -0.25,0.97461l1.70117,6c0.047,0.166 0.13481,0.3155 0.25781,0.4375l8.35742,8.28906h-30.35352c-0.56503,0 -1,-0.43497 -1,-1v-35c0,-0.56503 0.43497,-1 1,-1zM13,13c-0.36064,-0.0051 -0.69608,0.18438 -0.87789,0.49587c-0.18181,0.3115 -0.18181,0.69676 0,1.00825c0.18181,0.3115 0.51725,0.50097 0.87789,0.49587h24c0.36064,0.0051 0.69608,-0.18438 0.87789,-0.49587c0.18181,-0.3115 0.18181,-0.69676 0,-1.00825c-0.18181,-0.3115 -0.51725,-0.50097 -0.87789,-0.49587zM13,20c-0.36064,-0.0051 -0.69608,0.18438 -0.87789,0.49587c-0.18181,0.3115 -0.18181,0.69676 0,1.00825c0.18181,0.3115 0.51725,0.50097 0.87789,0.49587h24c0.36064,0.0051 0.69608,-0.18438 0.87789,-0.49587c0.18181,-0.3115 0.18181,-0.69676 0,-1.00825c-0.18181,-0.3115 -0.51725,-0.50097 -0.87789,-0.49587zM13,27c-0.36064,-0.0051 -0.69608,0.18438 -0.87789,0.49587c-0.18181,0.3115 -0.18181,0.69676 0,1.00825c0.18181,0.3115 0.51725,0.50097 0.87789,0.49587h10c0.36064,0.0051 0.69608,-0.18438 0.87789,-0.49587c0.18181,-0.3115 0.18181,-0.69676 0,-1.00825c-0.18181,-0.3115 -0.51725,-0.50097 -0.87789,-0.49587zM33.48633,30.49805l13.25391,13.16016l-2.98437,2.98633l-13.16406,-13.16992l-0.0332,-0.11523z"></path></g></g></svg>